<svg xmlns="http://www.w3.org/2000/svg" xmlns:xlink="http://www.w3.org/1999/xlink"><defs><style>.symbols{display:none}.symbols:target{display:inline}</style></defs><use xlink:href="#chave"/><use xlink:href="#cama"/><use xlink:href="#area"/><symbol class="symbols" id="cama" viewBox="0 0 22.962 13.121"><path id="Caminho_1537" data-name="Caminho 1537" d="M126.73 275.621a.41.41 0 00.41-.41v-1.23h.41a.41.41 0 00.41-.41v-4.1a2.054 2.054 0 00-1.64-2.009v-1.711a3.255 3.255 0 00-3.251-3.251h-13.18a3.255 3.255 0 00-3.251 3.251v1.711a2.054 2.054 0 00-1.64 2.009v4.1a.41.41 0 00.41.41h.41v1.23a.41.41 0 00.82 0v-1.23h19.682v1.23a.41.41 0 00.41.41zm-19.272-9.87a2.433 2.433 0 012.431-2.431h13.18a2.433 2.433 0 012.431 2.431v1.67h-1.669a1.927 1.927 0 00-1.9-1.64h-1.886a1.927 1.927 0 00-1.9 1.64h-3.335a1.927 1.927 0 00-1.9-1.64h-1.886a1.927 1.927 0 00-1.9 1.64h-1.668zM123 267.42h-4.024a1.111 1.111 0 011.07-.82h1.885a1.11 1.11 0 011.069.82zm-9.021 0h-4.024a1.111 1.111 0 011.07-.82h1.885a1.11 1.11 0 011.069.82zm-8.163 2.05a1.23 1.23 0 011.23-1.23h18.864a1.23 1.23 0 011.23 1.23v3.69h-21.322z" transform="translate(-104.998 -262.5)" fill="currentColor"/></symbol><symbol class="symbols" id="area" viewBox="0 0 13.121 13.121"><path id="noun-area-605344" d="M83.121 2.734V0h-2.734v1.093h-7.653V0H70v2.734h1.093v7.654H70v2.734h2.734v-1.094h7.654v1.093h2.734v-2.733h-1.094V2.734zM80.934.547h1.64v1.64h-1.64zm-10.387 1.64V.547h1.64v1.64zm1.64 10.388h-1.64v-1.64h1.64zm10.388-1.64v1.64h-1.64v-1.64zm-1.093-.547h-1.095v1.093h-7.653v-1.093H71.64V2.734h1.093V1.64h7.654v1.094h1.093z" transform="translate(-70)" fill="currentColor"/></symbol><symbol class="symbols" id="chave" viewBox="0 0 33.06 10.514"><path id="Caminho_198" data-name="Caminho 198" d="M236.475 325.438c-.01-.084-.11-.136-.264-.076a.781.781 0 01-.213.05.293.293 0 00.147-.162.153.153 0 00-.191-.191c-.086.023-.1.139-.023.161a.176.176 0 01-.228-.038c-.093-.092-.012-.245-.012-.245a.087.087 0 00.086.105.106.106 0 00.092-.156.16.16 0 00-.238-.046.163.163 0 00-.061.06.561.561 0 000-.1c0-.039-.013-.353-.2-.461a.294.294 0 00-.435.084.194.194 0 00.168.286.158.158 0 00.156-.193s.148.28-.022.449a.322.322 0 01-.416.069c.132-.041.115-.254-.042-.3a.261.261 0 00-.343.2h-19.98a.923.923 0 00.215-.367.665.665 0 00-.826-.829c-.373.1-.413.6-.1.7a.762.762 0 01-.983-.165c-.4-.4-.051-1.062-.051-1.062a.375.375 0 00.369.457.461.461 0 00.4-.678.784.784 0 00-1.251 0 2.342 2.342 0 00-1.274-2.584 2.665 2.665 0 00-3.032.641 2.489 2.489 0 00-.621 1.938.713.713 0 00-.221-.2.694.694 0 00-1.031.2.461.461 0 00.4.678.377.377 0 00.369-.458s.349.664-.053 1.061a.761.761 0 01-.982.166c.308-.1.269-.6-.1-.7a.663.663 0 00-.824.829 1.287 1.287 0 00.637.7 3.276 3.276 0 01-.924-.219c-.706-.28-1.143-.012-1.145.391 0 .4.439.67 1.145.39a3.294 3.294 0 01.924-.218 1.283 1.283 0 00-.637.7.664.664 0 00.824.83c.372-.1.412-.6.1-.7a.76.76 0 01.982.164c.4.4.053 1.062.053 1.062a.377.377 0 00-.369-.458.461.461 0 00-.4.679.7.7 0 001.031.2.707.707 0 00.221-.2 2.488 2.488 0 00.621 1.938 2.663 2.663 0 003.032.641 2.343 2.343 0 001.274-2.584.708.708 0 00.219.2.7.7 0 001.032-.2.461.461 0 00-.4-.678.376.376 0 00-.369.457s-.351-.665.051-1.062a.761.761 0 01.983-.165c-.309.1-.269.6.1.7a.665.665 0 00.826-.83.921.921 0 00-.215-.366h17.076a.664.664 0 00-.441.361c-.118.236-.032.768.393.753s.364-.507.364-.507.347.737-.05 1.178a.7.7 0 01-.972.182c.3-.108.266-.667-.1-.778-.614-.183-.907.44-.815.92a1.23 1.23 0 001.7.871 1.521 1.521 0 00.85-.855 1.623 1.623 0 00.849.855 1.256 1.256 0 001.7-.871c.093-.48-.2-1.1-.814-.92-.368.11-.407.67-.1.778a.7.7 0 01-.972-.182c-.4-.441-.052-1.178-.052-1.178s-.071.491.365.507.509-.517.394-.753a.667.667 0 00-.442-.361h1.038a.264.264 0 00.349.215c.157-.041.174-.253.042-.3a.323.323 0 01.416.07c.17.168.022.448.022.448a.159.159 0 00-.156-.193.2.2 0 00-.168.287.293.293 0 00.435.084c.191-.108.207-.423.2-.461a.544.544 0 000-.1.167.167 0 00.061.059.16.16 0 00.238-.046.107.107 0 00-.092-.157.087.087 0 00-.086.1s-.081-.154.012-.244a.177.177 0 01.228-.038c-.073.023-.063.139.023.162a.154.154 0 00.191-.191.3.3 0 00-.147-.163.768.768 0 01.213.051c.154.061.254.009.264-.076a.016.016 0 000-.005zm-23.529.081a1.442 1.442 0 00-.986 1.466 1.5 1.5 0 00.025.287 1.086 1.086 0 00-1.878-.03c-.337.557.2 1.326.7 1.11 0 0-.2 1.562-1.393 1.4a1.513 1.513 0 01-1.3-1.687.633.633 0 00.982.124.777.777 0 00-.309-1.291 1.1 1.1 0 00-1.281.5 1.746 1.746 0 00.05-.407 1.445 1.445 0 00-.986-1.469 1.287 1.287 0 00-.508-.081l.011-.007-.011-.008a1.28 1.28 0 00.508-.082 1.442 1.442 0 00.986-1.467 1.767 1.767 0 00-.05-.409 1.1 1.1 0 001.281.5.776.776 0 00.309-1.29.633.633 0 00-.982.124 1.513 1.513 0 011.3-1.687c1.19-.157 1.393 1.406 1.393 1.406-.5-.216-1.034.553-.7 1.109a1.086 1.086 0 001.878-.03 1.49 1.49 0 00-.025.286 1.443 1.443 0 00.986 1.467.209.209 0 110 .166m.58-.091v.014c-.026 0-.054-.006-.081-.007a.633.633 0 00.081-.007m19.286.648a.371.371 0 11-.7 0 .969.969 0 00-.336-.14h1.377a.97.97 0 00-.337.14m1.876-.564v-.005h.005l-.005.006m0-.128a.037.037 0 00.009.005h-.009m1.058.075a.332.332 0 00-.229.338.605.605 0 00-.363-.327.544.544 0 00-.089-.025.574.574 0 00.089-.025.609.609 0 00.363-.327.333.333 0 00.229.338.3.3 0 00.049.014.211.211 0 00-.049.014" transform="translate(-203.415 -320.179)" fill="#d59c1b"/></symbol></svg>