<svg xmlns="http://www.w3.org/2000/svg" xmlns:xlink="http://www.w3.org/1999/xlink"><defs><style>.symbols{display:none}.symbols:target{display:inline}</style></defs><use xlink:href="#infoContatoTel"/><use xlink:href="#infoMap"/><use xlink:href="#facebook"/><use xlink:href="#instagram"/><use xlink:href="#linkedin-in"/><use xlink:href="#twitter"/><use xlink:href="#youtube"/><use xlink:href="#whatsapp"/><use xlink:href="#wordpress"/><use xlink:href="#playVideo"/><use xlink:href="#playVideoWhite"/><use xlink:href="#prevSlide"/><use xlink:href="#nextSlide"/><use xlink:href="#prevSlideCustom"/><use xlink:href="#nextSlideCustom"/><use xlink:href="#downPage"/><use xlink:href="#upPage"/><use xlink:href="#sendNewsletter"/><use xlink:href="#btnMais"/><use xlink:href="#topo"/><use xlink:href="#rightCTA"/><use xlink:href="#mail"/><use xlink:href="#map"/><use xlink:href="#tel"/><use xlink:href="#lupa"/><use xlink:href="#download"/><use xlink:href="#scroll"/><use xlink:href="#abrirPagina"/><use xlink:href="#abrir"/><use xlink:href="#abrirCustom"/><use xlink:href="#chave"/><use xlink:href="#up"/><symbol class="symbols" id="up" viewBox="0 0 20.468 105.58"><path id="Caminho_1528" data-name="Caminho 1528" d="M82.288 258.58h-.26a.945.945 0 01-.682-.291l-2.6-2.709L74 250.623V351.58a1 1 0 01-2 0V250.624l-4.75 4.956-2.6 2.709a.945.945 0 01-.682.291h-.26a.944.944 0 01-.682-1.6l4.22-4.4 5.069-5.289a.944.944 0 011.363 0l5.068 5.289 4.22 4.4a.944.944 0 01-.678 1.6z" transform="translate(-62.766 -247)" fill="currentColor" fill-rule="evenodd"/></symbol><symbol class="symbols" id="chave" viewBox="0 0 33.06 10.514"><path id="Caminho_198" data-name="Caminho 198" d="M236.475 325.438c-.01-.084-.11-.136-.264-.076a.781.781 0 01-.213.05.293.293 0 00.147-.162.153.153 0 00-.191-.191c-.086.023-.1.139-.023.161a.176.176 0 01-.228-.038c-.093-.092-.012-.245-.012-.245a.087.087 0 00.086.105.106.106 0 00.092-.156.16.16 0 00-.238-.046.163.163 0 00-.061.06.561.561 0 000-.1c0-.039-.013-.353-.2-.461a.294.294 0 00-.435.084.194.194 0 00.168.286.158.158 0 00.156-.193s.148.28-.022.449a.322.322 0 01-.416.069c.132-.041.115-.254-.042-.3a.261.261 0 00-.343.2h-19.98a.923.923 0 00.215-.367.665.665 0 00-.826-.829c-.373.1-.413.6-.1.7a.762.762 0 01-.983-.165c-.4-.4-.051-1.062-.051-1.062a.375.375 0 00.369.457.461.461 0 00.4-.678.784.784 0 00-1.251 0 2.342 2.342 0 00-1.274-2.584 2.665 2.665 0 00-3.032.641 2.489 2.489 0 00-.621 1.938.713.713 0 00-.221-.2.694.694 0 00-1.031.2.461.461 0 00.4.678.377.377 0 00.369-.458s.349.664-.053 1.061a.761.761 0 01-.982.166c.308-.1.269-.6-.1-.7a.663.663 0 00-.824.829 1.287 1.287 0 00.637.7 3.276 3.276 0 01-.924-.219c-.706-.28-1.143-.012-1.145.391 0 .4.439.67 1.145.39a3.294 3.294 0 01.924-.218 1.283 1.283 0 00-.637.7.664.664 0 00.824.83c.372-.1.412-.6.1-.7a.76.76 0 01.982.164c.4.4.053 1.062.053 1.062a.377.377 0 00-.369-.458.461.461 0 00-.4.679.7.7 0 001.031.2.707.707 0 00.221-.2 2.488 2.488 0 00.621 1.938 2.663 2.663 0 003.032.641 2.343 2.343 0 001.274-2.584.708.708 0 00.219.2.7.7 0 001.032-.2.461.461 0 00-.4-.678.376.376 0 00-.369.457s-.351-.665.051-1.062a.761.761 0 01.983-.165c-.309.1-.269.6.1.7a.665.665 0 00.826-.83.921.921 0 00-.215-.366h17.076a.664.664 0 00-.441.361c-.118.236-.032.768.393.753s.364-.507.364-.507.347.737-.05 1.178a.7.7 0 01-.972.182c.3-.108.266-.667-.1-.778-.614-.183-.907.44-.815.92a1.23 1.23 0 001.7.871 1.521 1.521 0 00.85-.855 1.623 1.623 0 00.849.855 1.256 1.256 0 001.7-.871c.093-.48-.2-1.1-.814-.92-.368.11-.407.67-.1.778a.7.7 0 01-.972-.182c-.4-.441-.052-1.178-.052-1.178s-.071.491.365.507.509-.517.394-.753a.667.667 0 00-.442-.361h1.038a.264.264 0 00.349.215c.157-.041.174-.253.042-.3a.323.323 0 01.416.07c.17.168.022.448.022.448a.159.159 0 00-.156-.193.2.2 0 00-.168.287.293.293 0 00.435.084c.191-.108.207-.423.2-.461a.544.544 0 000-.1.167.167 0 00.061.059.16.16 0 00.238-.046.107.107 0 00-.092-.157.087.087 0 00-.086.1s-.081-.154.012-.244a.177.177 0 01.228-.038c-.073.023-.063.139.023.162a.154.154 0 00.191-.191.3.3 0 00-.147-.163.768.768 0 01.213.051c.154.061.254.009.264-.076a.016.016 0 000-.005zm-23.529.081a1.442 1.442 0 00-.986 1.466 1.5 1.5 0 00.025.287 1.086 1.086 0 00-1.878-.03c-.337.557.2 1.326.7 1.11 0 0-.2 1.562-1.393 1.4a1.513 1.513 0 01-1.3-1.687.633.633 0 00.982.124.777.777 0 00-.309-1.291 1.1 1.1 0 00-1.281.5 1.746 1.746 0 00.05-.407 1.445 1.445 0 00-.986-1.469 1.287 1.287 0 00-.508-.081l.011-.007-.011-.008a1.28 1.28 0 00.508-.082 1.442 1.442 0 00.986-1.467 1.767 1.767 0 00-.05-.409 1.1 1.1 0 001.281.5.776.776 0 00.309-1.29.633.633 0 00-.982.124 1.513 1.513 0 011.3-1.687c1.19-.157 1.393 1.406 1.393 1.406-.5-.216-1.034.553-.7 1.109a1.086 1.086 0 001.878-.03 1.49 1.49 0 00-.025.286 1.443 1.443 0 00.986 1.467.209.209 0 110 .166m.58-.091v.014c-.026 0-.054-.006-.081-.007a.633.633 0 00.081-.007m19.286.648a.371.371 0 11-.7 0 .969.969 0 00-.336-.14h1.377a.97.97 0 00-.337.14m1.876-.564v-.005h.005l-.005.006m0-.128a.037.037 0 00.009.005h-.009m1.058.075a.332.332 0 00-.229.338.605.605 0 00-.363-.327.544.544 0 00-.089-.025.574.574 0 00.089-.025.609.609 0 00.363-.327.333.333 0 00.229.338.3.3 0 00.049.014.211.211 0 00-.049.014" transform="translate(-203.415 -320.179)" fill="currentColor"/></symbol><symbol class="symbols" id="abrirCustom" viewBox="0 0 23 23"><path d="M20.67 0H7.163a2.257 2.257 0 00-2.25 2.259v13.553a2.257 2.257 0 002.25 2.26H20.67a2.257 2.257 0 002.252-2.26V2.26A2.257 2.257 0 0020.67 0zM7.163 15.813V2.258H20.67l.003 13.553H7.163z" fill="currenColor"/><path d="M2.246 6.825H0v13.864C0 21.964 1.007 23 2.246 23h13.473v-2.31H2.246V6.824zm10.03 4.065l-1.938-1.994L8.75 10.53l3.676 3.783 6.402-7.903-1.727-1.481-4.826 5.961z" fill="currenColor"/></symbol><symbol class="symbols" id="download" viewBox="0 0 23 22"><path d="M11.75 14.199l4-4.16m-4 4.16V1.719v12.48zm0 0l-4-4.16 4 4.16zm-10 2.08l.621 2.584c.108.45.358.85.71 1.135.35.286.784.44 1.23.441h14.878c.446 0 .88-.155 1.23-.44a2.09 2.09 0 00.71-1.136l.621-2.584" stroke="#fff" stroke-width="2" stroke-linecap="round" stroke-linejoin="round"/></symbol><symbol class="symbols" id="abrir"><path d="M13 1L1 13M3 1h10v10" fill="none" stroke="currentColor" stroke-width="2" stroke-linecap="round" stroke-linejoin="round"/></symbol><symbol class="symbols" id="abrirPagina" viewBox="0 0 17.499 17.786"><g id="Grupo_34" data-name="Grupo 34" fill="currentColor"><path id="Caminho_139" data-name="Caminho 139" d="M0 2v16.639h16.638v-8.033H15.2v6.6H1.434V3.435h6.885V2z" transform="translate(0 -.852)"/><path id="Caminho_140" data-name="Caminho 140" d="M19.009 0l1.672 1.755L14.44 8l1.217 1.217L21.869 3l1.785 1.874V0z" transform="translate(-6.155)"/></g></symbol><symbol class="symbols" id="scroll" viewBox="0 0 18.667 34.499"><defs><clipPath id="clip-path"><path id="Retângulo_15" data-name="Retângulo 15" fill="currentColor" d="M0 0h18.667v34.499H0z"/></clipPath></defs><g id="Grupo_20" data-name="Grupo 20"><g id="Grupo_19" data-name="Grupo 19" clip-path="url(#clip-path)" fill="currentColor"><path id="Caminho_34" data-name="Caminho 34" d="M18.594 7.3C18.039 3.187 14.109 0 9.334 0S.627 3.187.074 7.3H0v19.24h.019C.216 30.962 4.3 34.5 9.334 34.5s9.117-3.537 9.315-7.961h.019V7.3zm-1.357 4.72v14.974h-.016c-.166 3.444-3.6 6.2-7.825 6.2s-7.658-2.753-7.824-6.2h-.016V7.513h.062c.465-3.2 3.767-5.68 7.778-5.68s7.314 2.481 7.779 5.68h.062z"/><path id="Caminho_35" data-name="Caminho 35" d="M13.542 19.448a1.374 1.374 0 001.374-1.374V12.2a1.374 1.374 0 10-2.748 0v5.876a1.374 1.374 0 001.374 1.374" transform="translate(-3.807 -3.387)"/></g></g></symbol><symbol class="symbols" id="lupa" viewBox="0 0 16 16"><path id="XMLID_223_" d="M19.609 17.724l-3.385-3.385a6.679 6.679 0 10-1.885 1.885l3.385 3.385a1.333 1.333 0 001.885-1.885zM6 10.667a4.667 4.667 0 114.667 4.667A4.672 4.672 0 016 10.667z" transform="translate(-4 -4)" fill="currentColor"/></symbol><symbol class="symbols" id="mail" viewBox="0 0 18 13.5"><g id="icons" transform="translate(0 -3)"><path id="email" d="M15 3H3a3.009 3.009 0 00-3 3v7.5a3.009 3.009 0 003 3h12a3.009 3.009 0 003-3V6a3.009 3.009 0 00-3-3zm1.2 4.35l-5.925 3.975A2.528 2.528 0 019 11.7a2.528 2.528 0 01-1.275-.375L1.8 7.35a.793.793 0 01-.15-1.05.793.793 0 011.05-.15l5.925 3.975a.812.812 0 00.825 0l5.925-3.975a.738.738 0 011.05.225.818.818 0 01-.225.975z" fill="#c5a364"/></g></symbol><symbol class="symbols" id="map" viewBox="0 0 14 18.706"><g id="icons" transform="translate(-3)"><path id="pin" d="M10 0a6.971 6.971 0 00-7 7 13.757 13.757 0 006.611 11.589.839.839 0 00.856 0A13.967 13.967 0 0017 7a6.971 6.971 0 00-7-7zm0 10.111A3.111 3.111 0 1113.111 7 3.12 3.12 0 0110 10.111z" fill="#c5a364"/></g></symbol><symbol class="symbols" id="tel" viewBox="0 0 14 23.692"><path id="Caminho_67" data-name="Caminho 67" d="M21.308 2h-8.616A2.693 2.693 0 0010 4.692V23a2.693 2.693 0 002.692 2.692h8.615A2.693 2.693 0 0024 23V4.692A2.693 2.693 0 0021.308 2zM17 24.615A1.615 1.615 0 1118.615 23 1.613 1.613 0 0117 24.615zm4.846-4.308h-9.692V5.231h9.692z" transform="translate(-10 -2)" fill="#c5a364"/></symbol><symbol class="symbols" id="infoContatoTel" viewBox="0 0 18.006 18.006"><path id="phone-alt-solid" d="M17.493 12.73l-3.939-1.688a.844.844 0 00-.985.243l-1.744 2.131a13.036 13.036 0 01-6.232-6.232L6.724 5.44a.842.842 0 00.243-.985L5.279.516a.85.85 0 00-.967-.488L.654.872A.844.844 0 000 1.694a16.317 16.317 0 0016.318 16.319.844.844 0 00.823-.654l.844-3.658a.854.854 0 00-.493-.971z" transform="translate(0 -.006)" fill="currentColor"/></symbol><symbol class="symbols" id="infoMap" viewBox="0 0 384 512"><path fill="currentColor" d="M172.268 501.67C26.97 291.031 0 269.413 0 192 0 85.961 85.961 0 192 0s192 85.961 192 192c0 77.413-26.97 99.031-172.268 309.67-9.535 13.774-29.93 13.773-39.464 0zM192 272c44.183 0 80-35.817 80-80s-35.817-80-80-80-80 35.817-80 80 35.817 80 80 80z"/></symbol><symbol class="symbols" id="facebook" viewBox="0 0 448 512"><path fill="currentColor" d="M400 32H48A48 48 0 000 80v352a48 48 0 0048 48h137.25V327.69h-63V256h63v-54.64c0-62.15 37-96.48 93.67-96.48 27.14 0 55.52 4.84 55.52 4.84v61h-31.27c-30.81 0-40.42 19.12-40.42 38.73V256h68.78l-11 71.69h-57.78V480H400a48 48 0 0048-48V80a48 48 0 00-48-48z"/></symbol><symbol class="symbols" id="instagram" viewBox="0 0 448 512"><path fill="currentColor" d="M224.1 141c-63.6 0-114.9 51.3-114.9 114.9s51.3 114.9 114.9 114.9S339 319.5 339 255.9 287.7 141 224.1 141zm0 189.6c-41.1 0-74.7-33.5-74.7-74.7s33.5-74.7 74.7-74.7 74.7 33.5 74.7 74.7-33.6 74.7-74.7 74.7zm146.4-194.3c0 14.9-12 26.8-26.8 26.8-14.9 0-26.8-12-26.8-26.8s12-26.8 26.8-26.8 26.8 12 26.8 26.8zm76.1 27.2c-1.7-35.9-9.9-67.7-36.2-93.9-26.2-26.2-58-34.4-93.9-36.2-37-2.1-147.9-2.1-184.9 0-35.8 1.7-67.6 9.9-93.9 36.1s-34.4 58-36.2 93.9c-2.1 37-2.1 147.9 0 184.9 1.7 35.9 9.9 67.7 36.2 93.9s58 34.4 93.9 36.2c37 2.1 147.9 2.1 184.9 0 35.9-1.7 67.7-9.9 93.9-36.2 26.2-26.2 34.4-58 36.2-93.9 2.1-37 2.1-147.8 0-184.8zM398.8 388c-7.8 19.6-22.9 34.7-42.6 42.6-29.5 11.7-99.5 9-132.1 9s-102.7 2.6-132.1-9c-19.6-7.8-34.7-22.9-42.6-42.6-11.7-29.5-9-99.5-9-132.1s-2.6-102.7 9-132.1c7.8-19.6 22.9-34.7 42.6-42.6 29.5-11.7 99.5-9 132.1-9s102.7-2.6 132.1 9c19.6 7.8 34.7 22.9 42.6 42.6 11.7 29.5 9 99.5 9 132.1s2.7 102.7-9 132.1z"/></symbol><symbol class="symbols" id="linkedin-in" viewBox="0 0 448 512"><path fill="currentColor" d="M100.3 480H7.4V180.9h92.9V480zM53.8 140.1C24.1 140.1 0 115.5 0 85.8 0 56.1 24.1 32 53.8 32c29.7 0 53.8 24.1 53.8 53.8 0 29.7-24.1 54.3-53.8 54.3zM447.9 480h-92.7V334.4c0-34.7-.7-79.2-48.3-79.2-48.3 0-55.7 37.7-55.7 76.7V480h-92.8V180.9h89.1v40.8h1.3c12.4-23.5 42.7-48.3 87.9-48.3 94 0 111.3 61.9 111.3 142.3V480h-.1z"/></symbol><symbol class="symbols" id="twitter" viewBox="0 0 18.25 14.822"><path id="twitter-brands" d="M16.374 51.776c.012.162.012.324.012.486A10.569 10.569 0 015.744 62.9 10.57 10.57 0 010 61.225a7.738 7.738 0 00.9.046 7.491 7.491 0 004.644-1.6 3.747 3.747 0 01-3.5-2.594 4.717 4.717 0 00.706.058 3.956 3.956 0 00.984-.127 3.741 3.741 0 01-3-3.671v-.046a3.767 3.767 0 001.691.475 3.746 3.746 0 01-1.158-5 10.632 10.632 0 007.712 3.914 4.222 4.222 0 01-.093-.857 3.744 3.744 0 016.473-2.559 7.364 7.364 0 002.374-.9 3.73 3.73 0 01-1.633 2.057 7.5 7.5 0 002.154-.579 8.04 8.04 0 01-1.876 1.934z" transform="translate(0 -48.082)" fill="currentColor"/></symbol><symbol class="symbols" id="youtube" viewBox="0 0 576 512"><path fill="currentColor" d="M549.655 124.083c-6.281-23.65-24.787-42.276-48.284-48.597C458.781 64 288 64 288 64S117.22 64 74.629 75.486c-23.497 6.322-42.003 24.947-48.284 48.597-11.412 42.867-11.412 132.305-11.412 132.305s0 89.438 11.412 132.305c6.281 23.65 24.787 41.5 48.284 47.821C117.22 448 288 448 288 448s170.78 0 213.371-11.486c23.497-6.321 42.003-24.171 48.284-47.821 11.412-42.867 11.412-132.305 11.412-132.305s0-89.438-11.412-132.305zm-317.51 213.508V175.185l142.739 81.205-142.739 81.201z"/></symbol><symbol class="symbols" id="whatsapp" viewBox="0 0 15.969 15.969"><path d="M13.577 34.32a7.916 7.916 0 00-12.454 9.55L0 47.969l4.2-1.1a7.889 7.889 0 003.782.962 7.863 7.863 0 005.6-13.509zM7.981 46.5a6.565 6.565 0 01-3.351-.916l-.239-.143-2.491.649.663-2.427-.157-.25a6.59 6.59 0 1112.223-3.5A6.651 6.651 0 017.981 46.5zm3.607-4.926c-.2-.1-1.169-.577-1.351-.642s-.314-.1-.446.1-.51.642-.627.777-.232.15-.428.05A5.382 5.382 0 016.045 39.5c-.2-.349.2-.324.581-1.08a.366.366 0 00-.018-.346c-.05-.1-.446-1.073-.61-1.469s-.324-.331-.446-.339-.246-.007-.378-.007a.732.732 0 00-.528.246 2.222 2.222 0 00-.692 1.65 3.874 3.874 0 00.806 2.046 8.835 8.835 0 003.379 2.987 3.869 3.869 0 002.374.5 2.025 2.025 0 001.333-.941 1.654 1.654 0 00.114-.941c-.044-.089-.176-.139-.372-.235z" transform="translate(0 -32)" fill="currentColor"/></symbol><symbol class="symbols" id="wordpress" viewBox="0 0 512 512"><path fill="currentColor" d="M61.7 169.4l101.5 278C92.2 413 43.3 340.2 43.3 256c0-30.9 6.6-60.1 18.4-86.6zm337.9 75.9c0-26.3-9.4-44.5-17.5-58.7-10.8-17.5-20.9-32.4-20.9-49.9 0-19.6 14.8-37.8 35.7-37.8.9 0 1.8.1 2.8.2-37.9-34.7-88.3-55.9-143.7-55.9-74.3 0-139.7 38.1-177.8 95.9 5 .2 9.7.3 13.7.3 22.2 0 56.7-2.7 56.7-2.7 11.5-.7 12.8 16.2 1.4 17.5 0 0-11.5 1.3-24.3 2l77.5 230.4L249.8 247l-33.1-90.8c-11.5-.7-22.3-2-22.3-2-11.5-.7-10.1-18.2 1.3-17.5 0 0 35.1 2.7 56 2.7 22.2 0 56.7-2.7 56.7-2.7 11.5-.7 12.8 16.2 1.4 17.5 0 0-11.5 1.3-24.3 2l76.9 228.7 21.2-70.9c9-29.4 16-50.5 16-68.7zm-139.9 29.3l-63.8 185.5c19.1 5.6 39.2 8.7 60.1 8.7 24.8 0 48.5-4.3 70.6-12.1-.6-.9-1.1-1.9-1.5-2.9l-65.4-179.2zm183-120.7c.9 6.8 1.4 14 1.4 21.9 0 21.6-4 45.8-16.2 76.2l-65 187.9C426.2 403 468.7 334.5 468.7 256c0-37-9.4-71.8-26-102.1zM504 256c0 136.8-111.3 248-248 248C119.2 504 8 392.7 8 256 8 119.2 119.2 8 256 8c136.7 0 248 111.2 248 248zm-11.4 0c0-130.5-106.2-236.6-236.6-236.6C125.5 19.4 19.4 125.5 19.4 256S125.6 492.6 256 492.6c130.5 0 236.6-106.1 236.6-236.6z"/></symbol><symbol class="symbols" id="playVideo" viewBox="0 0 143 143"><g id="Grupo_761" data-name="Grupo 761" transform="translate(-1278 -483)"><g id="Elipse_2" data-name="Elipse 2" transform="translate(1278 483)" fill="rgba(0,0,0,0)" stroke="currentColor" stroke-width="8"><circle cx="71.5" cy="71.5" r="71.5" stroke="none"/><circle cx="71.5" cy="71.5" r="67.5" fill="none"/></g><g id="Polígono_2" data-name="Polígono 2" fill="currentColor"><path d="M25.108 6.078a6 6 0 019.467 0l17.563 22.55a6 6 0 01-4.738 9.687H12.278a6 6 0 01-4.734-9.687z" transform="rotate(90 425.131 949.421)"/><path d="M29.841 4.765a4.97 4.97 0 00-3.945 1.927L8.333 29.242a4.97 4.97 0 00-1.05 2.644c-.073.893.1 1.8.503 2.624a5.038 5.038 0 001.761 2.008 4.97 4.97 0 002.731.797h35.126a4.97 4.97 0 002.731-.797 5.038 5.038 0 001.761-2.008 5.03 5.03 0 00.503-2.624 4.97 4.97 0 00-1.05-2.644L33.786 6.692a4.968 4.968 0 00-3.945-1.927m0-1c1.766 0 3.533.77 4.734 2.313l17.563 22.55c3.069 3.94.26 9.687-4.734 9.687H12.278c-4.995 0-7.803-5.747-4.733-9.687l17.563-22.55a5.967 5.967 0 014.733-2.313z" fill="rgba(0,0,0,0)" transform="rotate(90 425.131 949.421)"/></g></g></symbol><symbol class="symbols" id="playVideoWhite" viewBox="0 0 143 143"><g id="Grupo_761" data-name="Grupo 761" transform="translate(-1278 -483)"><g id="Elipse_2" data-name="Elipse 2" transform="translate(1278 483)" fill="rgba(0,0,0,0)" stroke="#fff" stroke-width="8"><circle cx="71.5" cy="71.5" r="71.5" stroke="none"/><circle cx="71.5" cy="71.5" r="67.5" fill="none"/></g><g id="Polígono_2" data-name="Polígono 2" fill="#fff"><path d="M25.108 6.078a6 6 0 019.467 0l17.563 22.55a6 6 0 01-4.738 9.687H12.278a6 6 0 01-4.734-9.687z" transform="rotate(90 425.131 949.421)"/><path d="M29.841 4.765a4.97 4.97 0 00-3.945 1.927L8.333 29.242a4.97 4.97 0 00-1.05 2.644c-.073.893.1 1.8.503 2.624a5.038 5.038 0 001.761 2.008 4.97 4.97 0 002.731.797h35.126a4.97 4.97 0 002.731-.797 5.038 5.038 0 001.761-2.008 5.03 5.03 0 00.503-2.624 4.97 4.97 0 00-1.05-2.644L33.786 6.692a4.968 4.968 0 00-3.945-1.927m0-1c1.766 0 3.533.77 4.734 2.313l17.563 22.55c3.069 3.94.26 9.687-4.734 9.687H12.278c-4.995 0-7.803-5.747-4.733-9.687l17.563-22.55a5.967 5.967 0 014.733-2.313z" fill="rgba(0,0,0,0)" transform="rotate(90 425.131 949.421)"/></g></g></symbol><symbol class="symbols" id="prevSlide" viewBox="0 0 35.329 20.782"><path id="Caminho_19" data-name="Caminho 19" d="M16 992.75a1.747 1.747 0 01.422-1.072l8.313-8.833a1.785 1.785 0 012.273-.13 1.623 1.623 0 01-.016 2.273l-5.845 6.2H49.77a1.559 1.559 0 010 3.117H21.147l5.845 6.2a1.717 1.717 0 01.016 2.273 1.762 1.762 0 01-2.273-.13l-8.313-8.833A1.5 1.5 0 0116 992.75z" transform="translate(-16 -982.362)" fill="currentColor"/></symbol><symbol class="symbols" id="nextSlide" viewBox="0 0 35.329 20.782"><path id="Caminho_19" data-name="Caminho 19" d="M51.329 992.75a1.747 1.747 0 00-.422-1.072l-8.313-8.833a1.785 1.785 0 00-2.273-.13 1.623 1.623 0 00.016 2.273l5.845 6.2H17.559a1.559 1.559 0 000 3.117h28.623l-5.845 6.2a1.717 1.717 0 00-.016 2.273 1.762 1.762 0 002.273-.13l8.313-8.833a1.5 1.5 0 00.422-1.065z" transform="translate(-16 -982.362)" fill="currentColor"/></symbol><symbol class="symbols" id="prevSlideCustom" viewBox="0 0 28.767 50"><path id="Subtração_3" data-name="Subtração 3" d="M-2493.234 50L-2520 25l26.766-25 2 1.871L-2516 25l24.767 23.134-2 1.866z" transform="translate(2520)" fill="currentColor"/></symbol><symbol class="symbols" id="nextSlideCustom" viewBox="0 0 28.767 50.001"><path id="Subtração_4" data-name="Subtração 4" d="M-2512.767 50l-2-1.866L-2490 25l-24.762-23.129 2-1.871L-2486 25l-26.766 25z" transform="translate(2514.767)" fill="currentColor"/></symbol><symbol class="symbols" id="downPage" viewBox="0 0 15.634 85.347"><g id="Grupo_36" data-name="Grupo 36" transform="rotate(-90 42.674 42.673)"><g id="Grupo_22" data-name="Grupo 22" transform="translate(1.926 6.67)"><path id="Retângulo_34" data-name="Retângulo 34" fill="currentColor" d="M0 0h83.421v2.293H0z"/></g><g id="Grupo_23" data-name="Grupo 23"><path id="Caminho_37" data-name="Caminho 37" d="M9.216 0a1.147 1.147 0 00-.672.218L1.24 5.51A2.827 2.827 0 000 7.783a2.834 2.834 0 001.23 2.279l7.311 5.35a1.146 1.146 0 001.354-1.85l-7.311-5.35a.592.592 0 01-.292-.424.594.594 0 01.293-.422l7.3-5.292A1.146 1.146 0 009.216 0z" fill="currentColor"/></g></g></symbol><symbol class="symbols" id="upPage" viewBox="0 0 15.634 85.347"><g id="Grupo_24" data-name="Grupo 24" transform="rotate(90 4198.421 2232.213)"><g id="Grupo_22" data-name="Grupo 22" transform="translate(1968.134 6421.671)"><path id="Retângulo_34" data-name="Retângulo 34" fill="currentColor" d="M0 0h83.421v2.293H0z"/></g><g id="Grupo_23" data-name="Grupo 23" transform="translate(1966.208 6415)"><path id="Caminho_37" data-name="Caminho 37" d="M22.424 58.5a1.147 1.147 0 01-.672-.218l-7.3-5.292a2.715 2.715 0 01-.01-4.552l7.311-5.35a1.146 1.146 0 011.354 1.85l-7.311 5.35a.452.452 0 000 .846l7.3 5.292a1.146 1.146 0 01-.673 2.074z" transform="translate(-13.208 -42.861)" fill="currentColor"/></g></g></symbol><symbol class="symbols" id="sendNewsletter" viewBox="0 0 25.07 24.777"><path id="Caminho_36" data-name="Caminho 36" d="M36.113 28.3a.578.578 0 00-.829-.8l-10.362 8.816-5.473-2.116a1.331 1.331 0 01-.155-2.415l22.718-12.727a1.12 1.12 0 011.646 1.092l-1.993 20.773a1.375 1.375 0 01-1.881 1.148l-6.66-2.579-4.181 3.918a1.08 1.08 0 01-1.817-.8v-3.074z" transform="translate(-18.594 -18.924)" fill="currentColor"/></symbol><symbol class="symbols" id="btnMais" viewBox="0 0 40.141 40.141"><g id="Grupo_445" data-name="Grupo 445" transform="translate(.5 .5)" stroke="currentColor"><path id="Caminho_2" data-name="Caminho 2" d="M28.356 18.877h-8.13v-8.129h-1.478v8.129h-8.129v1.478h8.129v8.129h1.478v-8.129h8.129z" fill="#282828" stroke-width="1"/><circle id="Elipse_1" data-name="Elipse 1" cx="19.571" cy="19.571" r="19.571" fill="none" stroke-miterlimit="10" stroke-width="2"/></g></symbol><symbol class="symbols" id="topo" viewBox="0 0 10.014 76.689"><g id="Componente_11" data-name="Componente 11" transform="rotate(-90 17.345 8.345)"><path id="Caminho_3" data-name="Caminho 3" d="M-49.166 5.841h73.007l-2.748 2.748a.834.834 0 101.18 1.18L26.445 5.6a.834.834 0 000-1.18L22.273.244a.834.834 0 10-1.18 1.18l2.748 2.748h-73.007a.834.834 0 00-.834.835.834.834 0 00.834.834z" transform="translate(-1 -9)" fill="currenColor"/></g></symbol><symbol class="symbols" id="rightCTA" viewBox="0 0 20 12"><path id="Caminho_3" data-name="Caminho 3" d="M10 15h15.586l-3.293-3.293a1 1 0 111.414-1.414l5 5a1 1 0 010 1.414l-5 5a1 1 0 11-1.414-1.414L25.586 17H10a1 1 0 010-2z" transform="translate(-9 -10)" fill="currentColor"/></symbol></svg>