<svg xmlns="http://www.w3.org/2000/svg" xmlns:xlink="http://www.w3.org/1999/xlink">

    <defs>

        <style>

            .symbols {
                display:none;
            }
            .symbols:target {
                display:inline;
            }

        </style>

    </defs>


    <!-- identificadores -->
    <use xlink:href="#chave" />
    <use xlink:href="#cama" />
    <use xlink:href="#area" />


    <symbol class="symbols" id="cama" viewBox="0 0 22.962 13.121">
      <path id="Caminho_1537" data-name="Caminho 1537" d="M126.73,275.621a.41.41,0,0,0,.41-.41v-1.23h.41a.41.41,0,0,0,.41-.41v-4.1a2.054,2.054,0,0,0-1.64-2.009v-1.711a3.255,3.255,0,0,0-3.251-3.251h-13.18a3.255,3.255,0,0,0-3.251,3.251v1.711a2.054,2.054,0,0,0-1.64,2.009v4.1a.41.41,0,0,0,.41.41h.41v1.23a.41.41,0,0,0,.82,0v-1.23H126.32v1.23a.41.41,0,0,0,.41.41Zm-19.272-9.87a2.433,2.433,0,0,1,2.431-2.431h13.18a2.433,2.433,0,0,1,2.431,2.431v1.67h-1.669a1.927,1.927,0,0,0-1.9-1.64h-1.886a1.927,1.927,0,0,0-1.9,1.64H114.81a1.927,1.927,0,0,0-1.9-1.64h-1.886a1.927,1.927,0,0,0-1.9,1.64h-1.668ZM123,267.42h-4.024a1.111,1.111,0,0,1,1.07-.82h1.885a1.11,1.11,0,0,1,1.069.82Zm-9.021,0h-4.024a1.111,1.111,0,0,1,1.07-.82h1.885a1.11,1.11,0,0,1,1.069.82Zm-8.163,2.05a1.23,1.23,0,0,1,1.23-1.23H125.91a1.23,1.23,0,0,1,1.23,1.23v3.69H105.818Z" transform="translate(-104.998 -262.5)" fill="currentColor" />
    </symbol>

    <symbol class="symbols" id="area" viewBox="0 0 13.121 13.121">
      <path id="noun-area-605344" d="M83.121,2.734V0H80.387V1.093H72.734V0H70V2.734h1.093v7.654H70v2.734h2.734V12.028h7.654v1.093h2.734V10.388H82.028V2.734ZM80.934.547h1.64v1.64h-1.64ZM70.547,2.187V.547h1.64v1.64Zm1.64,10.388h-1.64v-1.64h1.64Zm10.388-1.64v1.64h-1.64v-1.64Zm-1.093-.547H80.387v1.093H72.734V10.388H71.64V2.734h1.093V1.64h7.654V2.734h1.093Z" transform="translate(-70)" fill="currentColor"/>
    </symbol>

    <symbol class="symbols" id="chave" viewBox="0 0 33.06 10.514">

        <path id="Caminho_198" data-name="Caminho 198" d="M236.475,325.438h0c-.01-.084-.11-.136-.264-.076a.781.781,0,0,1-.213.05.293.293,0,0,0,.147-.162.153.153,0,0,0-.191-.191c-.086.023-.1.139-.023.161a.176.176,0,0,1-.228-.038c-.093-.092-.012-.245-.012-.245a.087.087,0,0,0,.086.105.106.106,0,0,0,.092-.156.16.16,0,0,0-.238-.046.163.163,0,0,0-.061.06.561.561,0,0,0,0-.1c0-.039-.013-.353-.2-.461a.294.294,0,0,0-.435.084.194.194,0,0,0,.168.286.158.158,0,0,0,.156-.193s.148.28-.022.449a.322.322,0,0,1-.416.069c.132-.041.115-.254-.042-.3a.261.261,0,0,0-.343.2H214.456a.923.923,0,0,0,.215-.367.665.665,0,0,0-.826-.829c-.373.1-.413.6-.1.7a.762.762,0,0,1-.983-.165c-.4-.4-.051-1.062-.051-1.062a.375.375,0,0,0,.369.457.461.461,0,0,0,.4-.678.784.784,0,0,0-1.251,0,2.342,2.342,0,0,0-1.274-2.584,2.665,2.665,0,0,0-3.032.641,2.489,2.489,0,0,0-.621,1.938.713.713,0,0,0-.221-.2.694.694,0,0,0-1.031.2.461.461,0,0,0,.4.678.377.377,0,0,0,.369-.458s.349.664-.053,1.061a.761.761,0,0,1-.982.166c.308-.1.269-.6-.1-.7a.663.663,0,0,0-.824.829,1.287,1.287,0,0,0,.637.7,3.276,3.276,0,0,1-.924-.219c-.706-.28-1.143-.012-1.145.391h0c0,.4.439.67,1.145.39a3.294,3.294,0,0,1,.924-.218,1.283,1.283,0,0,0-.637.7.664.664,0,0,0,.824.83c.372-.1.412-.6.1-.7a.76.76,0,0,1,.982.164c.4.4.053,1.062.053,1.062a.377.377,0,0,0-.369-.458.461.461,0,0,0-.4.679.7.7,0,0,0,1.031.2.707.707,0,0,0,.221-.2,2.488,2.488,0,0,0,.621,1.938,2.663,2.663,0,0,0,3.032.641,2.343,2.343,0,0,0,1.274-2.584.708.708,0,0,0,.219.2.7.7,0,0,0,1.032-.2.461.461,0,0,0-.4-.678.376.376,0,0,0-.369.457s-.351-.665.051-1.062a.761.761,0,0,1,.983-.165c-.309.1-.269.6.1.7a.665.665,0,0,0,.826-.83.921.921,0,0,0-.215-.366h17.076a.664.664,0,0,0-.441.361c-.118.236-.032.768.393.753s.364-.507.364-.507.347.737-.05,1.178a.7.7,0,0,1-.972.182c.3-.108.266-.667-.1-.778-.614-.183-.907.44-.815.92a1.23,1.23,0,0,0,1.7.871,1.521,1.521,0,0,0,.85-.855,1.623,1.623,0,0,0,.849.855,1.256,1.256,0,0,0,1.7-.871c.093-.48-.2-1.1-.814-.92-.368.11-.407.67-.1.778a.7.7,0,0,1-.972-.182c-.4-.441-.052-1.178-.052-1.178s-.071.491.365.507.509-.517.394-.753a.667.667,0,0,0-.442-.361h1.038a.264.264,0,0,0,.349.215c.157-.041.174-.253.042-.3a.323.323,0,0,1,.416.07c.17.168.022.448.022.448a.159.159,0,0,0-.156-.193.2.2,0,0,0-.168.287.293.293,0,0,0,.435.084c.191-.108.207-.423.2-.461a.544.544,0,0,0,0-.1.167.167,0,0,0,.061.059.16.16,0,0,0,.238-.046.107.107,0,0,0-.092-.157.087.087,0,0,0-.086.1s-.081-.154.012-.244a.177.177,0,0,1,.228-.038c-.073.023-.063.139.023.162a.154.154,0,0,0,.191-.191.3.3,0,0,0-.147-.163.768.768,0,0,1,.213.051c.154.061.254.009.264-.076h0a.016.016,0,0,0,0-.005Zm-23.529.081a1.442,1.442,0,0,0-.986,1.466,1.5,1.5,0,0,0,.025.287,1.086,1.086,0,0,0-1.878-.03c-.337.557.2,1.326.7,1.11,0,0-.2,1.562-1.393,1.4a1.513,1.513,0,0,1-1.3-1.687.633.633,0,0,0,.982.124.777.777,0,0,0-.309-1.291,1.1,1.1,0,0,0-1.281.5,1.746,1.746,0,0,0,.05-.407,1.445,1.445,0,0,0-.986-1.469,1.287,1.287,0,0,0-.508-.081l.011-.007h0l-.011-.008a1.28,1.28,0,0,0,.508-.082,1.442,1.442,0,0,0,.986-1.467,1.767,1.767,0,0,0-.05-.409,1.1,1.1,0,0,0,1.281.5.776.776,0,0,0,.309-1.29.633.633,0,0,0-.982.124,1.513,1.513,0,0,1,1.3-1.687c1.19-.157,1.393,1.406,1.393,1.406-.5-.216-1.034.553-.7,1.109a1.086,1.086,0,0,0,1.878-.03,1.49,1.49,0,0,0-.025.286,1.443,1.443,0,0,0,.986,1.467.209.209,0,1,1,0,.166m.58-.091v.014c-.026,0-.054-.006-.081-.007a.633.633,0,0,0,.081-.007m19.286.648a.371.371,0,1,1-.7,0,.969.969,0,0,0-.336-.14h1.377a.97.97,0,0,0-.337.14m1.876-.564v-.005h.005l-.005.006m0-.128v0a.037.037,0,0,0,.009.005h-.009m1.058.075a.332.332,0,0,0-.229.338.605.605,0,0,0-.363-.327.544.544,0,0,0-.089-.025.574.574,0,0,0,.089-.025.609.609,0,0,0,.363-.327.333.333,0,0,0,.229.338.3.3,0,0,0,.049.014.211.211,0,0,0-.049.014" transform="translate(-203.415 -320.179)" fill="#d59c1b"/>

    </symbol>


</svg>
