<svg xmlns="http://www.w3.org/2000/svg" xmlns:xlink="http://www.w3.org/1999/xlink">

    <defs>

    <style>

        .symbols {
            display:none;
        }
        .symbols:target {
            display:inline;
        }

    </style>

    </defs>

    <use xlink:href="#infoContatoTel" />
    <use xlink:href="#infoMap" />
    <use xlink:href="#facebook" />
    <use xlink:href="#instagram" />
    <use xlink:href="#linkedin-in" />
    <use xlink:href="#twitter" />
    <use xlink:href="#youtube" />
    <use xlink:href="#whatsapp" />
    <use xlink:href="#wordpress" />
    <use xlink:href="#playVideo" />
    <use xlink:href="#playVideoWhite" />
    <use xlink:href="#prevSlide" />
    <use xlink:href="#nextSlide" />
    <use xlink:href="#prevSlideCustom" />
    <use xlink:href="#nextSlideCustom" />
    <use xlink:href="#downPage" />
    <use xlink:href="#upPage" />
    <use xlink:href="#sendNewsletter" />
    <use xlink:href="#btnMais" />
    <use xlink:href="#topo" />
    <use xlink:href="#rightCTA" />

    <use xlink:href="#mail" />
    <use xlink:href="#map" />
    <use xlink:href="#tel" />
    <use xlink:href="#lupa" />
    <use xlink:href="#download" />

    <!-- custom icons -->
    <use xlink:href="#scroll" />
    <use xlink:href="#abrirPagina" />
    <use xlink:href="#abrir" />

    <use xlink:href="#abrirCustom" />
    <use xlink:href="#chave" />

    <use xlink:href="#up" />

    <symbol class="symbols" id="up" viewBox="0 0 20.468 105.58">
      <path id="Caminho_1528" data-name="Caminho 1528" d="M82.288,258.58h-.26a.945.945,0,0,1-.682-.291l-2.6-2.709L74,250.623V351.58a1,1,0,0,1-2,0V250.624l-4.75,4.956-2.6,2.709a.945.945,0,0,1-.682.291h-.26a.944.944,0,0,1-.682-1.6l4.22-4.4,5.069-5.289a.944.944,0,0,1,1.363,0l5.068,5.289,4.22,4.4A.944.944,0,0,1,82.288,258.58Z" transform="translate(-62.766 -247)" fill="currentColor" fill-rule="evenodd"/>
    </symbol>

    <symbol class="symbols" id="chave" viewBox="0 0 33.06 10.514">

        <path  id="Caminho_198" data-name="Caminho 198" d="M236.475,325.438h0c-.01-.084-.11-.136-.264-.076a.781.781,0,0,1-.213.05.293.293,0,0,0,.147-.162.153.153,0,0,0-.191-.191c-.086.023-.1.139-.023.161a.176.176,0,0,1-.228-.038c-.093-.092-.012-.245-.012-.245a.087.087,0,0,0,.086.105.106.106,0,0,0,.092-.156.16.16,0,0,0-.238-.046.163.163,0,0,0-.061.06.561.561,0,0,0,0-.1c0-.039-.013-.353-.2-.461a.294.294,0,0,0-.435.084.194.194,0,0,0,.168.286.158.158,0,0,0,.156-.193s.148.28-.022.449a.322.322,0,0,1-.416.069c.132-.041.115-.254-.042-.3a.261.261,0,0,0-.343.2H214.456a.923.923,0,0,0,.215-.367.665.665,0,0,0-.826-.829c-.373.1-.413.6-.1.7a.762.762,0,0,1-.983-.165c-.4-.4-.051-1.062-.051-1.062a.375.375,0,0,0,.369.457.461.461,0,0,0,.4-.678.784.784,0,0,0-1.251,0,2.342,2.342,0,0,0-1.274-2.584,2.665,2.665,0,0,0-3.032.641,2.489,2.489,0,0,0-.621,1.938.713.713,0,0,0-.221-.2.694.694,0,0,0-1.031.2.461.461,0,0,0,.4.678.377.377,0,0,0,.369-.458s.349.664-.053,1.061a.761.761,0,0,1-.982.166c.308-.1.269-.6-.1-.7a.663.663,0,0,0-.824.829,1.287,1.287,0,0,0,.637.7,3.276,3.276,0,0,1-.924-.219c-.706-.28-1.143-.012-1.145.391h0c0,.4.439.67,1.145.39a3.294,3.294,0,0,1,.924-.218,1.283,1.283,0,0,0-.637.7.664.664,0,0,0,.824.83c.372-.1.412-.6.1-.7a.76.76,0,0,1,.982.164c.4.4.053,1.062.053,1.062a.377.377,0,0,0-.369-.458.461.461,0,0,0-.4.679.7.7,0,0,0,1.031.2.707.707,0,0,0,.221-.2,2.488,2.488,0,0,0,.621,1.938,2.663,2.663,0,0,0,3.032.641,2.343,2.343,0,0,0,1.274-2.584.708.708,0,0,0,.219.2.7.7,0,0,0,1.032-.2.461.461,0,0,0-.4-.678.376.376,0,0,0-.369.457s-.351-.665.051-1.062a.761.761,0,0,1,.983-.165c-.309.1-.269.6.1.7a.665.665,0,0,0,.826-.83.921.921,0,0,0-.215-.366h17.076a.664.664,0,0,0-.441.361c-.118.236-.032.768.393.753s.364-.507.364-.507.347.737-.05,1.178a.7.7,0,0,1-.972.182c.3-.108.266-.667-.1-.778-.614-.183-.907.44-.815.92a1.23,1.23,0,0,0,1.7.871,1.521,1.521,0,0,0,.85-.855,1.623,1.623,0,0,0,.849.855,1.256,1.256,0,0,0,1.7-.871c.093-.48-.2-1.1-.814-.92-.368.11-.407.67-.1.778a.7.7,0,0,1-.972-.182c-.4-.441-.052-1.178-.052-1.178s-.071.491.365.507.509-.517.394-.753a.667.667,0,0,0-.442-.361h1.038a.264.264,0,0,0,.349.215c.157-.041.174-.253.042-.3a.323.323,0,0,1,.416.07c.17.168.022.448.022.448a.159.159,0,0,0-.156-.193.2.2,0,0,0-.168.287.293.293,0,0,0,.435.084c.191-.108.207-.423.2-.461a.544.544,0,0,0,0-.1.167.167,0,0,0,.061.059.16.16,0,0,0,.238-.046.107.107,0,0,0-.092-.157.087.087,0,0,0-.086.1s-.081-.154.012-.244a.177.177,0,0,1,.228-.038c-.073.023-.063.139.023.162a.154.154,0,0,0,.191-.191.3.3,0,0,0-.147-.163.768.768,0,0,1,.213.051c.154.061.254.009.264-.076h0a.016.016,0,0,0,0-.005Zm-23.529.081a1.442,1.442,0,0,0-.986,1.466,1.5,1.5,0,0,0,.025.287,1.086,1.086,0,0,0-1.878-.03c-.337.557.2,1.326.7,1.11,0,0-.2,1.562-1.393,1.4a1.513,1.513,0,0,1-1.3-1.687.633.633,0,0,0,.982.124.777.777,0,0,0-.309-1.291,1.1,1.1,0,0,0-1.281.5,1.746,1.746,0,0,0,.05-.407,1.445,1.445,0,0,0-.986-1.469,1.287,1.287,0,0,0-.508-.081l.011-.007h0l-.011-.008a1.28,1.28,0,0,0,.508-.082,1.442,1.442,0,0,0,.986-1.467,1.767,1.767,0,0,0-.05-.409,1.1,1.1,0,0,0,1.281.5.776.776,0,0,0,.309-1.29.633.633,0,0,0-.982.124,1.513,1.513,0,0,1,1.3-1.687c1.19-.157,1.393,1.406,1.393,1.406-.5-.216-1.034.553-.7,1.109a1.086,1.086,0,0,0,1.878-.03,1.49,1.49,0,0,0-.025.286,1.443,1.443,0,0,0,.986,1.467.209.209,0,1,1,0,.166m.58-.091v.014c-.026,0-.054-.006-.081-.007a.633.633,0,0,0,.081-.007m19.286.648a.371.371,0,1,1-.7,0,.969.969,0,0,0-.336-.14h1.377a.97.97,0,0,0-.337.14m1.876-.564v-.005h.005l-.005.006m0-.128v0a.037.037,0,0,0,.009.005h-.009m1.058.075a.332.332,0,0,0-.229.338.605.605,0,0,0-.363-.327.544.544,0,0,0-.089-.025.574.574,0,0,0,.089-.025.609.609,0,0,0,.363-.327.333.333,0,0,0,.229.338.3.3,0,0,0,.049.014.211.211,0,0,0-.049.014" transform="translate(-203.415 -320.179)" fill="currentColor"/>

    </symbol>


    <symbol class="symbols" id="abrirCustom" viewBox="0 0 23 23">

        <path d="M20.6704 0H7.16329C5.92176 0 4.91211 1.01313 4.91211 2.25893V15.8125C4.91211 17.0583 5.92176 18.0714 7.16329 18.0714H20.6704C21.9119 18.0714 22.9215 17.0583 22.9215 15.8125V2.25893C22.9215 1.01313 21.9119 0 20.6704 0ZM7.16329 15.8125V2.25893H20.6704L20.6726 15.8125H7.16329Z" fill="currenColor"/>
        <path d="M2.24558 6.8247H0V20.6894C0 21.9638 1.00714 23.0001 2.24558 23.0001H15.719V20.6894H2.24558V6.8247ZM12.2754 10.8905L10.3375 8.89631L8.74989 10.53L12.4259 14.3128L18.828 6.40992L17.1012 4.92871L12.2754 10.8905Z" fill="currenColor"/>

    </symbol>

    <symbol class="symbols" id="download" viewBox="0 0 23 22">

        <path d="M11.75 14.1987L15.75 10.0386M11.75 14.1987V1.71838V14.1987ZM11.75 14.1987L7.75 10.0386L11.75 14.1987Z" stroke="white" stroke-width="2" stroke-linecap="round" stroke-linejoin="round"/>
        <path d="M1.75 16.2788L2.371 18.8633C2.47915 19.3133 2.72882 19.7128 3.08033 19.9983C3.43184 20.2838 3.86501 20.4389 4.311 20.439H19.189C19.635 20.4389 20.0682 20.2838 20.4197 19.9983C20.7712 19.7128 21.0208 19.3133 21.129 18.8633L21.75 16.2788" stroke="white" stroke-width="2" stroke-linecap="round" stroke-linejoin="round"/>

    </symbol>

    <symbol class="symbols" id="abrir" iewBox="0 0 14 14">

        <g>
        	<path fill="none" stroke="currentColor" stroke-width="2" stroke-linecap="round" stroke-linejoin="round" d="M13,1L1,13"/>
        	<path fill="none" stroke="currentColor" stroke-width="2" stroke-linecap="round" stroke-linejoin="round" d="M3,1h10v10"/>
        </g>

    </symbol>

    <symbol class="symbols" id="abrirPagina" viewBox="0 0 17.499 17.786">

      <g id="Grupo_34" data-name="Grupo 34" transform="translate(0 0)">
        <path id="Caminho_139" data-name="Caminho 139" d="M0,2V18.639H16.638V10.606H15.2v6.6H1.434V3.435H8.319V2Z" transform="translate(0 -0.852)" fill="currentColor"/>
        <path id="Caminho_140" data-name="Caminho 140" d="M19.009,0l1.672,1.755L14.44,8l1.217,1.217L21.869,3l1.785,1.874V0Z" transform="translate(-6.155)" fill="currentColor"/>
      </g>

    </symbol>

    <symbol class="symbols" id="scroll" viewBox="0 0 18.667 34.499">
          <defs>
            <clipPath id="clip-path">
              <rect id="Retângulo_15" data-name="Retângulo 15" width="18.667" height="34.499" fill="currentColor"/>
            </clipPath>
          </defs>
          <g id="Grupo_20" data-name="Grupo 20" transform="translate(0 0)">
            <g id="Grupo_19" data-name="Grupo 19" transform="translate(0 0)" clip-path="url(#clip-path)">
              <path id="Caminho_34" data-name="Caminho 34" d="M18.594,7.3C18.039,3.187,14.109,0,9.334,0S.627,3.187.074,7.3H0v19.24H.019C.216,30.962,4.3,34.5,9.334,34.5s9.117-3.537,9.315-7.961h.019V7.3Zm-1.357,4.72V26.994h-.016c-.166,3.444-3.6,6.2-7.825,6.2s-7.658-2.753-7.824-6.2H1.556V7.513h.062c.465-3.2,3.767-5.68,7.778-5.68s7.314,2.481,7.779,5.68h.062Z" transform="translate(0 0)" fill="currentColor"/>
              <path id="Caminho_35" data-name="Caminho 35" d="M13.542,19.448h0a1.374,1.374,0,0,0,1.374-1.374V12.2a1.374,1.374,0,1,0-2.748,0v5.876a1.374,1.374,0,0,0,1.374,1.374" transform="translate(-3.807 -3.387)" fill="currentColor"/>
            </g>
          </g>

    </symbol>

    <!-- icon custom -->
    <symbol class="symbols" id="lupa" viewBox="0 0 16 16">

        <path id="XMLID_223_" d="M19.609,17.724l-3.385-3.385a6.679,6.679,0,1,0-1.885,1.885l3.385,3.385a1.333,1.333,0,0,0,1.885-1.885ZM6,10.667a4.667,4.667,0,1,1,4.667,4.667A4.672,4.672,0,0,1,6,10.667Z" transform="translate(-4 -4)" fill="currentColor"/>

    </symbol>
    <symbol class="symbols" id="mail" viewBox="0 0 18 13.5">
        <g id="icons" transform="translate(0 -3)">
    <path id="email" d="M15,3H3A3.009,3.009,0,0,0,0,6v7.5a3.009,3.009,0,0,0,3,3H15a3.009,3.009,0,0,0,3-3V6A3.009,3.009,0,0,0,15,3Zm1.2,4.35-5.925,3.975A2.528,2.528,0,0,1,9,11.7a2.528,2.528,0,0,1-1.275-.375L1.8,7.35A.793.793,0,0,1,1.65,6.3.793.793,0,0,1,2.7,6.15l5.925,3.975a.812.812,0,0,0,.825,0L15.375,6.15a.738.738,0,0,1,1.05.225A.818.818,0,0,1,16.2,7.35Z" fill="#c5a364"/>
  </g>
    </symbol>
    <symbol class="symbols" id="map" viewBox="0 0 14 18.706">
        <g id="icons" transform="translate(-3)">
    <path id="pin" d="M10,0A6.971,6.971,0,0,0,3,7,13.757,13.757,0,0,0,9.611,18.589a.839.839,0,0,0,.856,0A13.967,13.967,0,0,0,17,7,6.971,6.971,0,0,0,10,0Zm0,10.111A3.111,3.111,0,1,1,13.111,7,3.12,3.12,0,0,1,10,10.111Z" transform="translate(0)" fill="#c5a364"/>
  </g>
    </symbol>
    <symbol class="symbols" id="tel" viewBox="0 0 14 23.692">
        <path id="Caminho_67" data-name="Caminho 67" d="M21.308,2H12.692A2.693,2.693,0,0,0,10,4.692V23a2.693,2.693,0,0,0,2.692,2.692h8.615A2.693,2.693,0,0,0,24,23V4.692A2.693,2.693,0,0,0,21.308,2ZM17,24.615A1.615,1.615,0,1,1,18.615,23,1.613,1.613,0,0,1,17,24.615Zm4.846-4.308H12.154V5.231h9.692Z" transform="translate(-10 -2)" fill="#c5a364"/>
    </symbol>

    <!-- info Contato -->
    <symbol class="symbols" id="infoContatoTel" viewBox="0 0 18.006 18.006">
        <path id="phone-alt-solid" d="M17.493,12.73l-3.939-1.688a.844.844,0,0,0-.985.243l-1.744,2.131A13.036,13.036,0,0,1,4.593,7.184L6.724,5.44a.842.842,0,0,0,.243-.985L5.279.516A.85.85,0,0,0,4.312.028L.654.872A.844.844,0,0,0,0,1.694,16.317,16.317,0,0,0,16.318,18.013a.844.844,0,0,0,.823-.654l.844-3.658a.854.854,0,0,0-.493-.971Z" transform="translate(0 -0.006)" fill="currentColor"/>
    </symbol>
    <symbol class="symbols" id="infoMap" viewBox="0 0 384 512">
        <path fill="currentColor" d="M172.268 501.67C26.97 291.031 0 269.413 0 192 0 85.961 85.961 0 192 0s192 85.961 192 192c0 77.413-26.97 99.031-172.268 309.67-9.535 13.774-29.93 13.773-39.464 0zM192 272c44.183 0 80-35.817 80-80s-35.817-80-80-80-80 35.817-80 80 35.817 80 80 80z"></path>
    </symbol>


    <!-- Social icons -->
    <symbol class="symbols" id="facebook" viewBox="0 0 448 512">

        <path fill="currentColor" d="M400 32H48A48 48 0 0 0 0 80v352a48 48 0 0 0 48 48h137.25V327.69h-63V256h63v-54.64c0-62.15 37-96.48 93.67-96.48 27.14 0 55.52 4.84 55.52 4.84v61h-31.27c-30.81 0-40.42 19.12-40.42 38.73V256h68.78l-11 71.69h-57.78V480H400a48 48 0 0 0 48-48V80a48 48 0 0 0-48-48z"></path>

    </symbol>
    <symbol class="symbols" id="instagram" viewBox="0 0 448 512">

        <path fill="currentColor" d="M224.1 141c-63.6 0-114.9 51.3-114.9 114.9s51.3 114.9 114.9 114.9S339 319.5 339 255.9 287.7 141 224.1 141zm0 189.6c-41.1 0-74.7-33.5-74.7-74.7s33.5-74.7 74.7-74.7 74.7 33.5 74.7 74.7-33.6 74.7-74.7 74.7zm146.4-194.3c0 14.9-12 26.8-26.8 26.8-14.9 0-26.8-12-26.8-26.8s12-26.8 26.8-26.8 26.8 12 26.8 26.8zm76.1 27.2c-1.7-35.9-9.9-67.7-36.2-93.9-26.2-26.2-58-34.4-93.9-36.2-37-2.1-147.9-2.1-184.9 0-35.8 1.7-67.6 9.9-93.9 36.1s-34.4 58-36.2 93.9c-2.1 37-2.1 147.9 0 184.9 1.7 35.9 9.9 67.7 36.2 93.9s58 34.4 93.9 36.2c37 2.1 147.9 2.1 184.9 0 35.9-1.7 67.7-9.9 93.9-36.2 26.2-26.2 34.4-58 36.2-93.9 2.1-37 2.1-147.8 0-184.8zM398.8 388c-7.8 19.6-22.9 34.7-42.6 42.6-29.5 11.7-99.5 9-132.1 9s-102.7 2.6-132.1-9c-19.6-7.8-34.7-22.9-42.6-42.6-11.7-29.5-9-99.5-9-132.1s-2.6-102.7 9-132.1c7.8-19.6 22.9-34.7 42.6-42.6 29.5-11.7 99.5-9 132.1-9s102.7-2.6 132.1 9c19.6 7.8 34.7 22.9 42.6 42.6 11.7 29.5 9 99.5 9 132.1s2.7 102.7-9 132.1z"></path>

    </symbol>
    <symbol class="symbols" id="linkedin-in" viewBox="0 0 448 512">

        <path fill="currentColor" d="M100.3,480H7.4V180.9h92.9V480z M53.8,140.1C24.1,140.1,0,115.5,0,85.8C0,56.1,24.1,32,53.8,32c29.7,0,53.8,24.1,53.8,53.8
        C107.6,115.5,83.5,140.1,53.8,140.1z M447.9,480h-92.7V334.4c0-34.7-0.7-79.2-48.3-79.2c-48.3,0-55.7,37.7-55.7,76.7V480h-92.8
        V180.9h89.1v40.8h1.3c12.4-23.5,42.7-48.3,87.9-48.3c94,0,111.3,61.9,111.3,142.3V480H447.9z"/>

    </symbol>
    <symbol class="symbols" id="twitter" viewBox="0 0 18.25 14.822">

        <path id="twitter-brands" d="M16.374,51.776c.012.162.012.324.012.486A10.569,10.569,0,0,1,5.744,62.9,10.57,10.57,0,0,1,0,61.225a7.738,7.738,0,0,0,.9.046,7.491,7.491,0,0,0,4.644-1.6,3.747,3.747,0,0,1-3.5-2.594,4.717,4.717,0,0,0,.706.058,3.956,3.956,0,0,0,.984-.127,3.741,3.741,0,0,1-3-3.671v-.046a3.767,3.767,0,0,0,1.691.475,3.746,3.746,0,0,1-1.158-5,10.632,10.632,0,0,0,7.712,3.914,4.222,4.222,0,0,1-.093-.857,3.744,3.744,0,0,1,6.473-2.559,7.364,7.364,0,0,0,2.374-.9A3.73,3.73,0,0,1,16.1,50.421a7.5,7.5,0,0,0,2.154-.579,8.04,8.04,0,0,1-1.876,1.934Z" transform="translate(0 -48.082)" fill="currentColor"/>

    </symbol>
    <symbol class="symbols" id="youtube" viewBox="0 0 576 512">

        <path fill="currentColor" d="M549.655 124.083c-6.281-23.65-24.787-42.276-48.284-48.597C458.781 64 288 64 288 64S117.22 64 74.629 75.486c-23.497 6.322-42.003 24.947-48.284 48.597-11.412 42.867-11.412 132.305-11.412 132.305s0 89.438 11.412 132.305c6.281 23.65 24.787 41.5 48.284 47.821C117.22 448 288 448 288 448s170.78 0 213.371-11.486c23.497-6.321 42.003-24.171 48.284-47.821 11.412-42.867 11.412-132.305 11.412-132.305s0-89.438-11.412-132.305zm-317.51 213.508V175.185l142.739 81.205-142.739 81.201z"></path>

    </symbol>

    <symbol class="symbols" id="whatsapp" viewBox="0 0 15.969 15.969">

        <path d="M13.577,34.32A7.916,7.916,0,0,0,1.123,43.87L0,47.969l4.2-1.1a7.889,7.889,0,0,0,3.782.962h0a7.863,7.863,0,0,0,5.6-13.509ZM7.981,46.5a6.565,6.565,0,0,1-3.351-.916l-.239-.143L1.9,46.09l.663-2.427-.157-.25a6.59,6.59,0,1,1,12.223-3.5A6.651,6.651,0,0,1,7.981,46.5Zm3.607-4.926c-.2-.1-1.169-.577-1.351-.642s-.314-.1-.446.1-.51.642-.627.777-.232.15-.428.05A5.382,5.382,0,0,1,6.045,39.5c-.2-.349.2-.324.581-1.08a.366.366,0,0,0-.018-.346c-.05-.1-.446-1.073-.61-1.469s-.324-.331-.446-.339-.246-.007-.378-.007a.732.732,0,0,0-.528.246,2.222,2.222,0,0,0-.692,1.65,3.874,3.874,0,0,0,.806,2.046,8.835,8.835,0,0,0,3.379,2.987,3.869,3.869,0,0,0,2.374.5,2.025,2.025,0,0,0,1.333-.941,1.654,1.654,0,0,0,.114-.941C11.916,41.717,11.784,41.667,11.588,41.571Z" transform="translate(0 -32)" fill="currentColor"/>

    </symbol>

    <symbol class="symbols" id="wordpress" viewBox="0 0 512 512">

        <path fill="currentColor" d="M61.7,169.4l101.5,278C92.2,413,43.3,340.2,43.3,256C43.3,225.1,49.9,195.9,61.7,169.4z M399.6,245.3
	c0-26.3-9.4-44.5-17.5-58.7c-10.8-17.5-20.9-32.4-20.9-49.9c0-19.6,14.8-37.8,35.7-37.8c0.9,0,1.8,0.1,2.8,0.2
	C361.8,64.4,311.4,43.2,256,43.2c-74.3,0-139.7,38.1-177.8,95.9c5,0.2,9.7,0.3,13.7,0.3c22.2,0,56.7-2.7,56.7-2.7
	c11.5-0.7,12.8,16.2,1.4,17.5c0,0-11.5,1.3-24.3,2l77.5,230.4L249.8,247l-33.1-90.8c-11.5-0.7-22.3-2-22.3-2
	c-11.5-0.7-10.1-18.2,1.3-17.5c0,0,35.1,2.7,56,2.7c22.2,0,56.7-2.7,56.7-2.7c11.5-0.7,12.8,16.2,1.4,17.5c0,0-11.5,1.3-24.3,2
	l76.9,228.7l21.2-70.9C392.6,284.6,399.6,263.5,399.6,245.3L399.6,245.3z M259.7,274.6l-63.8,185.5c19.1,5.6,39.2,8.7,60.1,8.7
	c24.8,0,48.5-4.3,70.6-12.1c-0.6-0.9-1.1-1.9-1.5-2.9L259.7,274.6z M442.7,153.9c0.9,6.8,1.4,14,1.4,21.9c0,21.6-4,45.8-16.2,76.2
	l-65,187.9C426.2,403,468.7,334.5,468.7,256C468.7,219,459.3,184.2,442.7,153.9L442.7,153.9z M504,256c0,136.8-111.3,248-248,248
	C119.2,504,8,392.7,8,256C8,119.2,119.2,8,256,8C392.7,8,504,119.2,504,256z M492.6,256c0-130.5-106.2-236.6-236.6-236.6
	C125.5,19.4,19.4,125.5,19.4,256S125.6,492.6,256,492.6C386.5,492.6,492.6,386.5,492.6,256z"/>

    </symbol>

    <!-- play -->
    <symbol class="symbols" id="playVideo" viewBox="0 0 143 143">

        <g id="Grupo_761" data-name="Grupo 761" transform="translate(-1278 -483)">
            <g id="Elipse_2" data-name="Elipse 2" transform="translate(1278 483)" fill="rgba(0,0,0,0)" stroke="currentColor" stroke-width="8">
                <circle cx="71.5" cy="71.5" r="71.5" stroke="none"/>
                <circle cx="71.5" cy="71.5" r="67.5" fill="none"/>
            </g>
            <g id="Polígono_2" data-name="Polígono 2" transform="translate(1374.552 524.29) rotate(90)" fill="currentColor">
                <path d="M25.108,6.078a6,6,0,0,1,9.467,0l17.563,22.55A6,6,0,0,1,47.4,38.315H12.278a6,6,0,0,1-4.734-9.687Z" stroke="none"/>
                <path d="M 29.8411865234375 4.764579772949219 C 28.28839683532715 4.764579772949219 26.8505973815918 5.467189788818359 25.89645767211914 6.6922607421875 L 8.333457946777344 29.24227142333984 C 7.724994659423828 30.02352142333984 7.361957550048828 30.93775177001953 7.283596038818359 31.88614082336426 C 7.209815979003906 32.77919006347656 7.383495330810547 33.68646240234375 7.785877227783203 34.50987243652344 C 8.188255310058594 35.33329010009766 8.797317504882812 36.02780151367188 9.547218322753906 36.51832962036133 C 10.34359741210938 37.03926086425781 11.28794479370117 37.31460952758789 12.2781867980957 37.31460952758789 L 47.4041862487793 37.31460952758789 C 48.39442443847656 37.31460952758789 49.33877563476562 37.03926086425781 50.13515472412109 36.51832962036133 C 50.88505554199219 36.02780151367188 51.49411773681641 35.33329010009766 51.8964958190918 34.50987243652344 C 52.29887771606445 33.68646240234375 52.47255706787109 32.77919006347656 52.39876556396484 31.88615036010742 C 52.32040786743164 30.93775177001953 51.95736694335938 30.02352142333984 51.34890747070312 29.24227905273438 L 33.78590393066406 6.6922607421875 C 32.83176422119141 5.467189788818359 31.39397621154785 4.764579772949219 29.8411865234375 4.764579772949219 M 29.84118461608887 3.764579772949219 C 31.60747337341309 3.764579772949219 33.37376403808594 4.535652160644531 34.57484436035156 6.077789306640625 L 52.13784790039062 28.62781143188477 C 55.20694732666016 32.56838226318359 52.39892578125 38.31460952758789 47.4041862487793 38.31460952758789 L 12.2781867980957 38.31460952758789 C 7.283447265625 38.31460952758789 4.475425720214844 32.56838226318359 7.544517517089844 28.62781143188477 L 25.10751724243164 6.077789306640625 C 26.3086051940918 4.535652160644531 28.07489585876465 3.764579772949219 29.84118461608887 3.764579772949219 Z" stroke="none" fill="rgba(0,0,0,0)"/>
            </g>
        </g>

    </symbol>

    <!-- color White -->
     <symbol class="symbols" id="playVideoWhite" viewBox="0 0 143 143">

        <g id="Grupo_761" data-name="Grupo 761" transform="translate(-1278 -483)">
            <g id="Elipse_2" data-name="Elipse 2" transform="translate(1278 483)" fill="rgba(0,0,0,0)" stroke="#fff" stroke-width="8">
                <circle cx="71.5" cy="71.5" r="71.5" stroke="none"/>
                <circle cx="71.5" cy="71.5" r="67.5" fill="none"/>
            </g>
            <g id="Polígono_2" data-name="Polígono 2" transform="translate(1374.552 524.29) rotate(90)" fill="#fff">
                <path d="M25.108,6.078a6,6,0,0,1,9.467,0l17.563,22.55A6,6,0,0,1,47.4,38.315H12.278a6,6,0,0,1-4.734-9.687Z" stroke="none"/>
                <path d="M 29.8411865234375 4.764579772949219 C 28.28839683532715 4.764579772949219 26.8505973815918 5.467189788818359 25.89645767211914 6.6922607421875 L 8.333457946777344 29.24227142333984 C 7.724994659423828 30.02352142333984 7.361957550048828 30.93775177001953 7.283596038818359 31.88614082336426 C 7.209815979003906 32.77919006347656 7.383495330810547 33.68646240234375 7.785877227783203 34.50987243652344 C 8.188255310058594 35.33329010009766 8.797317504882812 36.02780151367188 9.547218322753906 36.51832962036133 C 10.34359741210938 37.03926086425781 11.28794479370117 37.31460952758789 12.2781867980957 37.31460952758789 L 47.4041862487793 37.31460952758789 C 48.39442443847656 37.31460952758789 49.33877563476562 37.03926086425781 50.13515472412109 36.51832962036133 C 50.88505554199219 36.02780151367188 51.49411773681641 35.33329010009766 51.8964958190918 34.50987243652344 C 52.29887771606445 33.68646240234375 52.47255706787109 32.77919006347656 52.39876556396484 31.88615036010742 C 52.32040786743164 30.93775177001953 51.95736694335938 30.02352142333984 51.34890747070312 29.24227905273438 L 33.78590393066406 6.6922607421875 C 32.83176422119141 5.467189788818359 31.39397621154785 4.764579772949219 29.8411865234375 4.764579772949219 M 29.84118461608887 3.764579772949219 C 31.60747337341309 3.764579772949219 33.37376403808594 4.535652160644531 34.57484436035156 6.077789306640625 L 52.13784790039062 28.62781143188477 C 55.20694732666016 32.56838226318359 52.39892578125 38.31460952758789 47.4041862487793 38.31460952758789 L 12.2781867980957 38.31460952758789 C 7.283447265625 38.31460952758789 4.475425720214844 32.56838226318359 7.544517517089844 28.62781143188477 L 25.10751724243164 6.077789306640625 C 26.3086051940918 4.535652160644531 28.07489585876465 3.764579772949219 29.84118461608887 3.764579772949219 Z" stroke="none" fill="rgba(0,0,0,0)"/>
            </g>
        </g>

    </symbol>

    <!-- navslide -->
    <symbol class="symbols" id="prevSlide" viewBox="0 0 35.329 20.782">
        <path id="Caminho_19" data-name="Caminho 19" d="M16,992.75a1.747,1.747,0,0,1,.422-1.072l8.313-8.833a1.785,1.785,0,0,1,2.273-.13,1.623,1.623,0,0,1-.016,2.273l-5.845,6.2H49.77a1.559,1.559,0,0,1,0,3.117H21.147l5.845,6.2a1.717,1.717,0,0,1,.016,2.273,1.762,1.762,0,0,1-2.273-.13l-8.313-8.833A1.5,1.5,0,0,1,16,992.75Z" transform="translate(-16 -982.362)" fill="currentColor"/>
    </symbol>
    <symbol class="symbols" id="nextSlide" viewBox="0 0 35.329 20.782">

        <path id="Caminho_19" data-name="Caminho 19" d="M51.329,992.75a1.747,1.747,0,0,0-.422-1.072l-8.313-8.833a1.785,1.785,0,0,0-2.273-.13,1.623,1.623,0,0,0,.016,2.273l5.845,6.2H17.559a1.559,1.559,0,0,0,0,3.117H46.182l-5.845,6.2a1.717,1.717,0,0,0-.016,2.273,1.762,1.762,0,0,0,2.273-.13l8.313-8.833A1.5,1.5,0,0,0,51.329,992.75Z" transform="translate(-16 -982.362)" fill="currentColor"/>

    </symbol>


    <!-- navslide Custom -->
    <symbol class="symbols" id="prevSlideCustom" viewBox="0 0 28.767 50">
        <path id="Subtração_3" data-name="Subtração 3" d="M-2493.234,50-2520,25l26.766-25,2,1.871L-2516,25l24.767,23.134-2,1.866h0Z" transform="translate(2520)" fill="currentColor"/>
    </symbol>
    <symbol class="symbols" id="nextSlideCustom" viewBox="0 0 28.767 50.001">
        <path id="Subtração_4" data-name="Subtração 4" d="M-2512.767,50h0l-2-1.866L-2490,25l-24.762-23.129,2-1.871L-2486,25l-26.766,25Z" transform="translate(2514.767)" fill="currentColor"/>
    </symbol>




    <symbol class="symbols" id="downPage" viewBox="0 0 15.634 85.347">
        <g id="Grupo_36" data-name="Grupo 36" transform="translate(0 85.347) rotate(-90)">
            <g id="Grupo_22" data-name="Grupo 22" transform="translate(1.926 6.67)">
            <rect id="Retângulo_34" data-name="Retângulo 34" width="83.421" height="2.293" transform="translate(0)" fill="currentColor"/>
        </g>
        <g id="Grupo_23" data-name="Grupo 23" transform="translate(0 0)">
            <path id="Caminho_37" data-name="Caminho 37" d="M9.216,0a1.147,1.147,0,0,0-.672.218L1.24,5.51A2.827,2.827,0,0,0,0,7.783a2.834,2.834,0,0,0,1.23,2.279l7.311,5.35a1.146,1.146,0,0,0,1.354-1.85L2.584,8.212a.592.592,0,0,1-.292-.424.594.594,0,0,1,.293-.422l7.3-5.292A1.146,1.146,0,0,0,9.216,0Z" fill="currentColor"/>
            </g>
        </g>
    </symbol>

    <symbol class="symbols" id="upPage" viewBox="0 0 15.634 85.347">
       <g id="Grupo_24" data-name="Grupo 24" transform="translate(6430.634 -1966.208) rotate(90)">
        <g id="Grupo_22" data-name="Grupo 22" transform="translate(1968.134 6421.671)">
        <rect id="Retângulo_34" data-name="Retângulo 34" width="83.421" height="2.293" transform="translate(0 0)" fill="currentColor"/>
        </g>
        <g id="Grupo_23" data-name="Grupo 23" transform="translate(1966.208 6415)">
        <path id="Caminho_37" data-name="Caminho 37" d="M22.424,58.5a1.147,1.147,0,0,1-.672-.218l-7.3-5.292a2.715,2.715,0,0,1-.01-4.552l7.311-5.35a1.146,1.146,0,0,1,1.354,1.85l-7.311,5.35a.452.452,0,0,0,0,.846l7.3,5.292a1.146,1.146,0,0,1-.673,2.074Z" transform="translate(-13.208 -42.861)" fill="currentColor"/>
        </g>
    </g>
    </symbol>

    <symbol class="symbols" id="sendNewsletter" viewBox="0 0 25.07 24.777">
        <path id="Caminho_36" data-name="Caminho 36" d="M36.113,28.3a.578.578,0,0,0-.829-.8L24.922,36.316,19.449,34.2a1.331,1.331,0,0,1-.155-2.415L42.012,19.058a1.12,1.12,0,0,1,1.646,1.092L41.665,40.923a1.375,1.375,0,0,1-1.881,1.148l-6.66-2.579L28.943,43.41a1.08,1.08,0,0,1-1.817-.8V39.536Z" transform="translate(-18.594 -18.924)" fill="currentColor"/>
    </symbol>

    <symbol class="symbols" id="btnMais" viewBox="0 0 40.141 40.141">
        <g id="Grupo_445" data-name="Grupo 445" transform="translate(0.5 0.5)">
            <path id="Caminho_2" data-name="Caminho 2" d="M54.563,48.737H46.433V40.608H44.955v8.129H36.826v1.478h8.129v8.129h1.478V50.215h8.129Z" transform="translate(-26.207 -29.86)" fill="#282828" stroke="currentColor" stroke-width="1"/>
            <circle id="Elipse_1" data-name="Elipse 1" cx="19.571" cy="19.571" r="19.571" fill="none" stroke="currentColor" stroke-miterlimit="10" stroke-width="2"/>
        </g>
    </symbol>

    <symbol class="symbols" id="topo" viewBox="0 0 10.014 76.689">
      <g id="Componente_11" data-name="Componente 11" transform="translate(9 25.689) rotate(-90)">
        <path id="Caminho_3" data-name="Caminho 3" d="M-49.166,5.841H23.841L21.093,8.589a.834.834,0,1,0,1.18,1.18L26.445,5.6a.834.834,0,0,0,0-1.18L22.273.244a.834.834,0,1,0-1.18,1.18l2.748,2.748H-49.166A.834.834,0,0,0-50,5.007.834.834,0,0,0-49.166,5.841Z" transform="translate(-1 -9)" fill="currenColor"/>
      </g>
    </symbol>

     <symbol class="symbols" id="rightCTA" viewBox="0 0 20 12">
        <path id="Caminho_3" data-name="Caminho 3" d="M10,15H25.586l-3.293-3.293a1,1,0,1,1,1.414-1.414l5,5a1,1,0,0,1,0,1.414l-5,5a1,1,0,1,1-1.414-1.414L25.586,17H10a1,1,0,0,1,0-2Z" transform="translate(-9 -10)" fill="currentColor"/>
    </symbol>



</svg>
