<?xml version="1.0" encoding="UTF-8"?>
<svg id="Layer_1" data-name="Layer 1" xmlns="http://www.w3.org/2000/svg" viewBox="0 0 106.16 92.48">
  <defs>
    <style>
      .cls-1 {
        fill: #a6ce39;
      }

      .cls-2 {
        fill: #8ed8f8;
      }

      .cls-3 {
        font-family: Swiss721BT-Heavy, 'Swis721 Hv BT';
        font-size: 16.48px;
        font-weight: 800;
      }

      .cls-3, .cls-4 {
        fill: #231f20;
      }

      .cls-5 {
        fill: #9bd3ae;
      }
    </style>
  </defs>
  <path class="cls-4" d="M.33,30.05h7c0,2.47.89,5.15,5.42,5.15s5.39-2.71,5.39-5.15v-5.03h-8.01v-5.9h15.04v10.93c0,7.18-3.6,11.05-12.42,11.05S.33,37.26.33,30.05"/>
  <path class="cls-4" d="M27.48,30.05v-10.93h7v10.69c0,2.68,1.19,5.39,6.02,5.39s5.99-2.74,5.99-5.39v-10.69h7.03v10.93c0,7.18-3.87,11.05-13.02,11.05s-13.01-3.87-13.01-11.05"/>
  <path class="cls-1" d="M17.71,39.79l-7.87,7.87c-4.31,4.31-4.31,11.3,0,15.61l7.87,7.87c4.31,4.31,11.3,4.31,15.61,0l7.87-7.87c4.31-4.31,4.31-11.3,0-15.61l-7.87-7.87c-4.31-4.31-11.3-4.31-15.61,0M28.25,44.7v8.04h8.04v5.47h-8.04v8.04h-5.47v-8.04h-8.04v-5.47h8.04v-8.04h5.47Z"/>
  <path class="cls-5" d="M103.83,92.46v-10.31c0-6.35-5.14-11.49-11.49-11.49h-25.03c-6.35,0-11.49,5.14-11.49,11.49v10.31h48.01Z"/>
  <path class="cls-2" d="M55.82,19.12v9.91c0,6.35,5.14,11.49,11.49,11.49h25.03c6.35,0,11.49-5.14,11.49-11.49v-9.91h-48.01Z"/>
  <path class="cls-4" d="M50.01,44.9h17.42c5.87,0,8.79,2.23,8.79,6.55,0,2.95-1.61,4.88-4.5,5.75,2.74.18,4.47,1.76,4.47,4.38v4.71h-7v-3.57c0-1.91-.54-2.47-2.44-2.47h-9.74v6.05h-7v-21.38ZM65.76,54.64c1.88,0,3.16-.36,3.16-2.08s-1.28-2.06-3.16-2.06h-8.76v4.14h8.76Z"/>
  <polygon class="cls-4" points="77.65 44.9 103.83 44.9 103.83 50.17 84.65 50.17 84.65 53.18 103.24 53.18 103.24 57.98 84.65 57.98 84.65 61.01 103.83 61.01 103.83 66.28 77.65 66.28 77.65 44.9"/>
  <path class="cls-4" d="M.33,71.1h17.42c5.87,0,8.79,2.23,8.79,6.55,0,2.95-1.61,4.88-4.5,5.75,2.74.18,4.47,1.76,4.47,4.38v4.71h-7v-3.57c0-1.91-.54-2.47-2.44-2.47H7.33v6.05H.33v-21.38ZM16.08,80.84c1.88,0,3.16-.36,3.16-2.09s-1.28-2.06-3.16-2.06H7.33v4.14h8.76Z"/>
  <path class="cls-4" d="M27.48,71.08h26.21v5.28h-19.21v3.01h18.61v4.8h-18.61v3.04h19.21v5.28h-26.21v-21.4ZM34.49,65.62l6.11-2.39,6.08,2.39v3.55l-6.08-2.39-6.11,2.39v-3.55Z"/>
  <text class="cls-3" transform="translate(-1.24 14.18)"><tspan x="0" y="0">I</tspan></text>
  <text class="cls-3" transform="translate(6.19 14.18)"><tspan x="0" y="0">N</tspan></text>
  <text class="cls-3" transform="translate(20.73 14.18)"><tspan x="0" y="0">S</tspan></text>
  <text class="cls-3" transform="translate(33.89 14.18)"><tspan x="0" y="0">T</tspan></text>
  <text class="cls-3" transform="translate(45.96 14.18)"><tspan x="0" y="0">I</tspan></text>
  <text class="cls-3" transform="translate(53.38 14.18)"><tspan x="0" y="0">T</tspan></text>
  <text class="cls-3" transform="translate(65.45 14.18)"><tspan x="0" y="0">U</tspan></text>
  <text class="cls-3" transform="translate(79.52 14.18)"><tspan x="0" y="0">T</tspan></text>
  <text class="cls-3" transform="translate(91.58 14.18)"><tspan x="0" y="0">O</tspan></text>
</svg>